<svg width="54" height="49" viewBox="0 0 54 49" fill="none" xmlns="http://www.w3.org/2000/svg">
<path fill-rule="evenodd" clip-rule="evenodd" d="M16.397 18.3852C16.397 18.3852 16.4984 18.9 16.5329 18.9049C18.3995 19.1711 19.8 20.2599 19.8 22.2C19.8 24.3263 18.0763 26.05 15.95 26.05H6.05C3.9237 26.05 2.2 24.3263 2.2 22.2C2.2 20.2599 3.63507 18.6549 5.50163 18.3888C5.53622 18.3838 5.5701 18.3828 5.60298 18.3852C6.09888 15.8572 8.32671 13.95 11 13.95C13.6733 13.95 15.9011 15.8572 16.397 18.3852Z" fill="white"/>
<path fill-rule="evenodd" clip-rule="evenodd" d="M51.4669 19.0658C51.4669 19.0658 51.5302 19.3636 51.5518 19.3665C52.7184 19.5205 53.5938 20.1503 53.5938 21.2727C53.5938 22.5028 52.5164 23.5 51.1875 23.5H45C43.6711 23.5 42.5938 22.5028 42.5938 21.2727C42.5938 20.1503 43.4907 19.2219 44.6573 19.0679C44.6789 19.065 44.7001 19.0644 44.7206 19.0658C45.0306 17.6034 46.4229 16.5 48.0938 16.5C49.7646 16.5 51.1569 17.6034 51.4669 19.0658Z" fill="white"/>
<path fill-rule="evenodd" clip-rule="evenodd" d="M40.8127 26.0641C40.8127 26.0641 40.997 27 41.0599 27.009C44.4537 27.4929 47 29.4725 47 33C47 36.866 43.866 40 40 40H22C18.134 40 15 36.866 15 33C15 29.4725 17.6092 26.5544 21.003 26.0705C21.0659 26.0615 21.1275 26.0596 21.1873 26.0641C22.0889 21.4677 26.1395 18 31 18C35.8605 18 39.9111 21.4677 40.8127 26.0641Z" fill="white"/>
</svg>
