<svg width="48" height="48" viewBox="0 0 48 48" fill="none" xmlns="http://www.w3.org/2000/svg">
<path fill-rule="evenodd" clip-rule="evenodd" d="M35 24C35 30.0751 30.0751 35 24 35C17.9249 35 13 30.0751 13 24C13 17.9249 17.9249 13 24 13C30.0751 13 35 17.9249 35 24Z" fill="white"/>
<rect x="37" y="22" width="8" height="4" rx="2" fill="white"/>
<rect x="3" y="22" width="8" height="4" rx="2" fill="white"/>
<rect x="37" y="22" width="8" height="4" rx="2" fill="white"/>
<rect x="3" y="22" width="8" height="4" rx="2" fill="white"/>
<rect x="36.2583" y="28.7679" width="8" height="4" rx="2" transform="rotate(30 36.2583 28.7679)" fill="white"/>
<rect x="6.81348" y="11.7679" width="8" height="4" rx="2" transform="rotate(30 6.81348 11.7679)" fill="white"/>
<rect x="32.2321" y="34.2583" width="8" height="4" rx="2" transform="rotate(60 32.2321 34.2583)" fill="white"/>
<rect x="15.2321" y="4.81346" width="8" height="4" rx="2" transform="rotate(60 15.2321 4.81346)" fill="white"/>
<g clip-path="url(#clip0)">
<rect x="26" y="37" width="8" height="4" rx="2" transform="rotate(90 26 37)" fill="white"/>
</g>
<g clip-path="url(#clip1)">
<rect x="26" y="3" width="8" height="4" rx="2" transform="rotate(90 26 3)" fill="white"/>
</g>
<rect x="19.2321" y="36.2583" width="8" height="4" rx="2" transform="rotate(120 19.2321 36.2583)" fill="white"/>
<rect x="36.2321" y="6.81346" width="8" height="4" rx="2" transform="rotate(120 36.2321 6.81346)" fill="white"/>
<rect x="13.7417" y="32.2321" width="8" height="4" rx="2" transform="rotate(150 13.7417 32.2321)" fill="white"/>
<rect x="43.1865" y="15.2321" width="8" height="4" rx="2" transform="rotate(150 43.1865 15.2321)" fill="white"/>
<path d="M34 24C34 29.5228 29.5228 34 24 34C18.4772 34 14 29.5228 14 24C14 18.4772 18.4772 14 24 14C29.5228 14 34 18.4772 34 24Z" fill="white"/>
<defs>
<clipPath id="clip0">
<rect x="26" y="37" width="8" height="4" rx="2" transform="rotate(90 26 37)" fill="white"/>
</clipPath>
<clipPath id="clip1">
<rect x="26" y="3" width="8" height="4" rx="2" transform="rotate(90 26 3)" fill="white"/>
</clipPath>
</defs>
</svg>
